<svg width="20" height="27" viewBox="0 0 20 27" fill="none" xmlns="http://www.w3.org/2000/svg">
<path d="M19.7978 9.48331C19.4431 4.16668 15.0991 0 9.90637 0C4.71405 0 0.37002 4.1668 0.01495 9.48331C-0.116925 11.9265 0.627031 14.3365 2.11323 16.2802L9.31511 25.9233C9.45454 26.1092 9.67344 26.2187 9.90599 26.2187C10.1385 26.2187 10.3577 26.1092 10.4971 25.9233L17.699 16.2858C19.1869 14.3406 19.9309 11.9281 19.7973 9.48269L19.7978 9.48331ZM16.5146 15.3938L9.90681 24.2449L3.29901 15.4025C2.02244 13.7403 1.38113 11.6769 1.49033 9.58372C1.75627 5.59994 4.97757 1.48013 9.90719 1.48013C14.8367 1.48013 18.0576 5.59676 18.324 9.5806C18.434 11.6748 17.7926 13.7392 16.5154 15.4023L16.5146 15.3938Z" fill="#C4C4C4"/>
<path d="M9.90638 5.34869C8.80797 5.34309 7.7525 5.77479 6.97246 6.54826C6.19243 7.32173 5.75193 8.37353 5.74831 9.47213C5.74466 10.5705 6.17806 11.6255 6.95299 12.404C7.72766 13.1828 8.78045 13.6214 9.87886 13.6233C10.9775 13.625 12.0315 13.1899 12.8088 12.4138C13.5862 11.6379 14.0233 10.5844 14.0233 9.48598C14.0233 8.39225 13.5901 7.34283 12.8186 6.56767C12.0473 5.79225 11.0001 5.354 9.90638 5.34863V5.34869ZM9.90638 12.1456C9.19998 12.1512 8.52011 11.8752 8.01727 11.3787C7.51439 10.8824 7.22969 10.2062 7.22601 9.49984C7.22235 8.79319 7.49999 8.11406 7.99774 7.61266C8.4955 7.111 9.17215 6.82801 9.87886 6.82626C10.5855 6.82431 11.2636 7.10366 11.7641 7.60261C12.2643 8.10159 12.5456 8.77921 12.5456 9.48592C12.5463 10.1882 12.2694 10.8625 11.7748 11.3612C11.2804 11.8602 10.6088 12.1431 9.90638 12.1485V12.1456Z" fill="#C4C4C4"/>
</svg>
