<svg width="15" height="15" viewBox="0 0 15 15" fill="none" xmlns="http://www.w3.org/2000/svg">
<g clip-path="url(#clip0_86_1387)">
<path d="M5.38043 2.28261H3.42393V0.489141C3.42393 0.218936 3.20481 0 2.93479 0C2.66476 0 2.44564 0.218936 2.44564 0.489141V2.28261H0.489141C0.219111 2.28261 0 2.50154 0 2.77175V14.5109C0 14.7811 0.219111 15 0.489141 15H2.93479V4.72825C2.93479 3.71256 3.94729 2.99798 4.90913 3.35115L5.86954 3.70573V2.77175C5.86957 2.50154 5.65046 2.28261 5.38043 2.28261ZM1.95653 13.0435H0.978252V12.0652H1.9565V13.0435H1.95653ZM1.95653 11.087H0.978252V10.1087H1.9565V11.087H1.95653ZM1.95653 9.13043H0.978252V8.15218H1.9565V9.13043H1.95653ZM1.95653 7.17393H0.978252V6.19567H1.9565V7.17393H1.95653ZM1.95653 5.21739H0.978252V4.23914H1.9565V5.21739H1.95653Z" fill="#104378"/>
<path d="M4.57162 4.26944C4.25126 4.15167 3.91309 4.38921 3.91309 4.72832V14.5109C3.91309 14.7811 4.1322 15.0001 4.40223 15.0001H7.17397V5.23023L4.57162 4.26944ZM6.19569 13.0435H5.21744V12.0653H6.19569V13.0435ZM6.19569 11.087H5.21744V10.1087H6.19569V11.087ZM6.19569 9.13047H5.21744V8.15222H6.19569V9.13047Z" fill="#104378"/>
<path d="M14.5111 3.26086H14.0219V1.79347C14.0219 1.52326 13.8028 1.30433 13.5328 1.30433H12.0654V0.489141C12.0654 0.218936 11.8464 0 11.5763 0C11.3062 0 11.0872 0.218936 11.0872 0.489141V1.30436H9.61977C9.34974 1.30436 9.13063 1.52329 9.13063 1.7935V3.26089H8.64148C8.37145 3.26089 8.15234 3.47982 8.15234 3.75003V14.5109C8.15234 14.7811 8.37145 15 8.64148 15H14.5111C14.7811 15 15.0002 14.7811 15.0002 14.5109V3.75C15.0002 3.47979 14.7811 3.26086 14.5111 3.26086ZM11.0872 13.0435H10.1089V12.0652H11.0872V13.0435ZM11.0872 11.087H10.1089V10.1087H11.0872V11.087ZM11.0872 9.13043H10.1089V8.15218H11.0872V9.13043ZM11.0872 7.17393H10.1089V6.19567H11.0872V7.17393ZM13.0437 13.0435H12.0654V12.0652H13.0437V13.0435ZM13.0437 11.087H12.0654V10.1087H13.0437V11.087ZM13.0437 9.13043H12.0654V8.15218H13.0437V9.13043ZM13.0437 7.17393H12.0654V6.19567H13.0437V7.17393Z" fill="#104378"/>
</g>
<defs>
<clipPath id="clip0_86_1387">
<rect width="15" height="15" fill="white"/>
</clipPath>
</defs>
</svg>
