<svg width="16" height="16" viewBox="0 0 16 16" fill="none" xmlns="http://www.w3.org/2000/svg">
<path d="M15 7.97046H1C0.448656 7.97046 0 8.41912 0 8.97046C0 9.5218 0.448656 9.97046 1 9.97046H15C15.5513 9.97046 16 9.5218 16 8.97046C16 8.41912 15.5513 7.97046 15 7.97046Z" fill="#104378"/>
<path d="M15.0922 9.3164C14.9115 9.26574 14.7302 9.3684 14.6802 9.54574L14.6542 9.63709H1.34681L1.32016 9.54574C1.27016 9.3684 1.0875 9.26709 0.908158 9.3164C0.730814 9.36706 0.628814 9.55174 0.679502 9.7284L1.59816 12.9444C1.88281 13.9411 2.8055 14.6371 3.8415 14.6371H12.1582C13.1948 14.6371 14.1168 13.9411 14.4015 12.9444L15.3202 9.7284C15.3715 9.55171 15.2688 9.36706 15.0922 9.3164ZM3.84216 13.3037C3.39816 13.3037 3.00216 13.0057 2.88081 12.5784L2.44816 11.0624C2.3975 10.885 2.50016 10.701 2.67681 10.6504C2.85547 10.5997 3.03881 10.703 3.08881 10.8797L3.52147 12.3957C3.56281 12.5377 3.69413 12.6377 3.84213 12.6377C4.02613 12.6377 4.17547 12.7871 4.17547 12.9711C4.1755 13.1551 4.02616 13.3037 3.84216 13.3037Z" fill="#104378"/>
<path d="M4.48208 14.0049C4.31742 13.9243 4.11808 13.9889 4.03473 14.1543L3.36808 15.4876C3.28608 15.6523 3.35273 15.8523 3.51742 15.935C3.56608 15.959 3.61676 15.9703 3.66676 15.9703C3.78876 15.9703 3.90611 15.903 3.96476 15.7857L4.63142 14.4523C4.71342 14.2876 4.64673 14.0876 4.48208 14.0049Z" fill="#104378"/>
<path d="M12.6319 15.4883L11.9652 14.155C11.8826 13.9896 11.6826 13.9236 11.5179 14.0056C11.3532 14.0883 11.2866 14.2883 11.3686 14.453L12.0352 15.7863C12.0939 15.903 12.2112 15.9703 12.3332 15.9703C12.3832 15.9703 12.4339 15.959 12.4826 15.9357C12.6472 15.853 12.7139 15.653 12.6319 15.4883Z" fill="#104378"/>
<path d="M13.3901 0.029541C13.0501 0.029541 12.7301 0.162197 12.4895 0.402885L11.4315 1.46088C11.3015 1.59088 11.3015 1.80223 11.4315 1.93223C11.5615 2.06223 11.7728 2.06223 11.9028 1.93223L12.9608 0.874885C13.0748 0.760228 13.2275 0.696885 13.3935 0.696885C13.7281 0.696885 14.0001 0.968885 14.0001 1.30354V8.30354C14.0001 8.48754 14.1495 8.63688 14.3335 8.63688C14.5175 8.63688 14.6668 8.48754 14.6675 8.30288V1.30288C14.6675 0.600885 14.0968 0.029541 13.3901 0.029541Z" fill="#104378"/>
<path d="M12.236 1.7944L11.5694 1.12775C11.4934 1.05175 11.3874 1.0164 11.2794 1.0344L9.61271 1.30775C9.49005 1.32775 9.38936 1.4144 9.35005 1.53175C9.31071 1.64909 9.34071 1.77975 9.42739 1.8684L11.4274 3.9284C11.4907 3.9944 11.578 4.02975 11.666 4.02975C11.6974 4.02975 11.7294 4.02509 11.7607 4.01575C11.8794 3.98109 11.9694 3.88309 11.9934 3.76175L12.3267 2.09509C12.3487 1.9864 12.3147 1.87372 12.236 1.7944Z" fill="#104378"/>
<path d="M7.902 4.06845C7.772 3.93845 7.56066 3.93845 7.43066 4.06845L6.764 4.7351C6.634 4.8651 6.634 5.07645 6.764 5.20645C6.82935 5.2711 6.91466 5.30379 7 5.30379C7.08535 5.30379 7.17066 5.27114 7.23535 5.20645L7.902 4.53979C8.032 4.40976 8.032 4.19845 7.902 4.06845Z" fill="#104378"/>
<path d="M9.2355 5.4017C9.1055 5.2717 8.89416 5.2717 8.76416 5.4017L8.0975 6.06836C7.9675 6.19836 7.9675 6.4097 8.0975 6.5397C8.16284 6.60436 8.24816 6.63704 8.3335 6.63704C8.41884 6.63704 8.50416 6.60439 8.56884 6.5397L9.2355 5.87304C9.3655 5.74304 9.3655 5.5317 9.2355 5.4017Z" fill="#104378"/>
<path d="M9.90201 3.4017C9.77201 3.2717 9.56066 3.2717 9.43066 3.4017L8.764 4.06836C8.634 4.19836 8.634 4.4097 8.764 4.5397C8.82935 4.60436 8.91466 4.63704 9 4.63704C9.08535 4.63704 9.17066 4.60439 9.23535 4.5397L9.90201 3.87304C10.032 3.74304 10.032 3.5317 9.90201 3.4017Z" fill="#104378"/>
</svg>
