<?xml version="1.0" encoding="utf-8"?>
<!-- Generator: Adobe Illustrator 24.2.1, SVG Export Plug-In . SVG Version: 6.00 Build 0)  -->
<svg version="1.1" id="Layer_1" xmlns="http://www.w3.org/2000/svg" xmlns:xlink="http://www.w3.org/1999/xlink" x="0px" y="0px"
	 viewBox="0 0 18.7 18.7" style="enable-background:new 0 0 18.7 18.7;" xml:space="preserve">
<style type="text/css">
	.st0{fill:#C4C4C4;}
</style>
<path class="st0" d="M9.3,0.2c-1.8,0-3.6,0.5-5.1,1.5c-1.5,1-2.7,2.4-3.4,4.1S0,9.4,0.3,11.2c0.4,1.8,1.2,3.4,2.5,4.7
	c1.3,1.3,2.9,2.2,4.7,2.5c1.8,0.4,3.6,0.2,5.3-0.5S16,16,17,14.5c1-1.5,1.5-3.3,1.5-5.1c0-1.2-0.2-2.4-0.7-3.5c-0.5-1.1-1.1-2.1-2-3
	c-0.9-0.9-1.9-1.5-3-2S10.5,0.2,9.3,0.2z M9.3,16.7c-1.5,0-2.9-0.4-4.1-1.2c-1.2-0.8-2.1-2-2.7-3.3S1.9,9.4,2.1,8
	c0.3-1.4,1-2.7,2-3.8c1-1,2.3-1.7,3.8-2c1.4-0.3,2.9-0.1,4.2,0.4c1.3,0.6,2.5,1.5,3.3,2.7c0.8,1.2,1.2,2.6,1.2,4.1
	c0,1.9-0.8,3.8-2.1,5.2C13.1,15.9,11.3,16.7,9.3,16.7z"/>
<path class="st0" d="M9.3,8.5c-1.8,0-1.8-0.6-1.8-0.9c0-0.3,0.6-0.9,1.8-0.9c1.2,0,1.3,0.6,1.3,0.9h1.8c0-0.6-0.2-1.2-0.6-1.7
	c-0.4-0.5-1-0.8-1.6-0.9v-1H8.4v1C6.6,5.2,5.7,6.4,5.7,7.6c0,1,0.5,2.8,3.7,2.8c1.8,0,1.8,0.6,1.8,0.9c0,0.3-0.6,0.9-1.8,0.9
	c-1.7,0-1.8-0.8-1.8-0.9H5.7c0,0.8,0.6,2.3,2.8,2.7v1h1.8v-1c1.8-0.3,2.8-1.5,2.8-2.7C13,10.2,12.5,8.5,9.3,8.5z"/>
</svg>
