<svg width="16" height="16" viewBox="0 0 16 16" fill="none" xmlns="http://www.w3.org/2000/svg">
<path d="M15.7381 7.82357C15.5317 8.0298 15.1973 8.0298 14.991 7.82357L8.38094 1.21352C8.17105 1.00356 7.82924 1.00342 7.61935 1.21352L1.0093 7.82357C0.906112 7.92669 0.770881 7.97824 0.635721 7.97824C0.50056 7.97824 0.365329 7.92669 0.262145 7.82357C0.0558475 7.6172 0.0558475 7.28279 0.262145 7.07649L6.87226 0.466441C7.49419 -0.15548 8.50609 -0.15548 9.12802 0.466441L15.7381 7.07649C15.9443 7.28279 15.9443 7.6172 15.7381 7.82357ZM7.99172 2.51237C7.82367 2.51237 7.63069 2.57633 7.50278 2.7043L1.56727 8.61481V14.8154C1.56727 15.4695 2.15629 15.9999 2.81047 15.9999H5.3002V9.8664C5.3002 9.44176 5.70315 9.09749 6.12779 9.09749H9.87249C10.2971 9.09749 10.5827 9.44176 10.5827 9.8664V15.9999H13.1898C13.844 15.9999 14.3156 15.4695 14.3156 14.8154V8.6139L8.43524 2.70423C8.30733 2.5764 8.15985 2.51237 7.99172 2.51237Z" fill="#104378"/>
</svg>
