<svg width="32" height="32" viewBox="0 0 32 32" fill="none" xmlns="http://www.w3.org/2000/svg">
<rect width="32" height="32" rx="4" fill="rgba(0, 169, 249,0.2)"/>
<path d="M22.45 8.7H20.75V7.85C20.75 7.62457 20.6604 7.40837 20.501 7.24896C20.3416 7.08955 20.1254 7 19.9 7C19.6746 7 19.4584 7.08955 19.299 7.24896C19.1396 7.40837 19.05 7.62457 19.05 7.85V8.7H13.95V7.85C13.95 7.62457 13.8604 7.40837 13.701 7.24896C13.5416 7.08955 13.3254 7 13.1 7C12.8746 7 12.6584 7.08955 12.499 7.24896C12.3396 7.40837 12.25 7.62457 12.25 7.85V8.7H10.55C9.8737 8.7 9.2251 8.96866 8.74688 9.44688C8.26866 9.9251 8 10.5737 8 11.25V21.45C8 22.1263 8.26866 22.7749 8.74688 23.2531C9.2251 23.7313 9.8737 24 10.55 24H22.45C23.1263 24 23.7749 23.7313 24.2531 23.2531C24.7313 22.7749 25 22.1263 25 21.45V11.25C25 10.5737 24.7313 9.9251 24.2531 9.44688C23.7749 8.96866 23.1263 8.7 22.45 8.7ZM23.3 21.45C23.3 21.6754 23.2104 21.8916 23.051 22.051C22.8916 22.2104 22.6754 22.3 22.45 22.3H10.55C10.3246 22.3 10.1084 22.2104 9.94896 22.051C9.78955 21.8916 9.7 21.6754 9.7 21.45V15.5H23.3V21.45ZM23.3 13.8H9.7V11.25C9.7 11.0246 9.78955 10.8084 9.94896 10.649C10.1084 10.4896 10.3246 10.4 10.55 10.4H12.25V11.25C12.25 11.4754 12.3396 11.6916 12.499 11.851C12.6584 12.0104 12.8746 12.1 13.1 12.1C13.3254 12.1 13.5416 12.0104 13.701 11.851C13.8604 11.6916 13.95 11.4754 13.95 11.25V10.4H19.05V11.25C19.05 11.4754 19.1396 11.6916 19.299 11.851C19.4584 12.0104 19.6746 12.1 19.9 12.1C20.1254 12.1 20.3416 12.0104 20.501 11.851C20.6604 11.6916 20.75 11.4754 20.75 11.25V10.4H22.45C22.6754 10.4 22.8916 10.4896 23.051 10.649C23.2104 10.8084 23.3 11.0246 23.3 11.25V13.8Z" fill="#104378"/>
</svg>
