<svg width="20" height="20" viewBox="0 0 20 20" fill="none" xmlns="http://www.w3.org/2000/svg">
<path d="M6.8125 9.2875H4.72917V11.2125H6.8125V9.2875ZM10.9792 9.2875H8.89583V11.2125H10.9792V9.2875ZM15.1458 9.2875H13.0625V11.2125H15.1458V9.2875ZM17.2292 2.55H16.1875V0.625H14.1042V2.55H5.77083V0.625H3.6875V2.55H2.64583C1.48958 2.55 0.572917 3.41625 0.572917 4.475L0.5625 17.95C0.5625 18.4605 0.781993 18.9502 1.17269 19.3112C1.56339 19.6722 2.0933 19.875 2.64583 19.875H17.2292C18.375 19.875 19.3125 19.0087 19.3125 17.95V4.475C19.3125 3.41625 18.375 2.55 17.2292 2.55ZM17.2292 17.95H2.64583V7.3625H17.2292V17.95Z" fill="#C4C4C4"/>
</svg>
