<svg width="18" height="15" viewBox="0 0 18 15" fill="none" xmlns="http://www.w3.org/2000/svg">
<path d="M16.3333 2.30769H13.5L12.825 0.436813C12.7784 0.308794 12.6929 0.198136 12.5803 0.119954C12.4677 0.0417721 12.3334 -0.000120045 12.1958 2.58385e-07H5.80417C5.52292 2.58385e-07 5.27083 0.175138 5.17708 0.436813L4.5 2.30769H1.66667C0.745833 2.30769 0 3.04533 0 3.95604V13.3516C0 14.2624 0.745833 15 1.66667 15H16.3333C17.2542 15 18 14.2624 18 13.3516V3.95604C18 3.04533 17.2542 2.30769 16.3333 2.30769ZM9 11.7033C7.15833 11.7033 5.66667 10.228 5.66667 8.40659C5.66667 6.58517 7.15833 5.10989 9 5.10989C10.8417 5.10989 12.3333 6.58517 12.3333 8.40659C12.3333 10.228 10.8417 11.7033 9 11.7033ZM7 8.40659C7 8.9312 7.21071 9.43432 7.58579 9.80527C7.96086 10.1762 8.46957 10.3846 9 10.3846C9.53043 10.3846 10.0391 10.1762 10.4142 9.80527C10.7893 9.43432 11 8.9312 11 8.40659C11 7.88199 10.7893 7.37887 10.4142 7.00792C10.0391 6.63697 9.53043 6.42857 9 6.42857C8.46957 6.42857 7.96086 6.63697 7.58579 7.00792C7.21071 7.37887 7 7.88199 7 8.40659Z" fill="#104378"/>
</svg>
