<?xml version="1.0" encoding="utf-8"?>
<!-- Generator: Adobe Illustrator 24.2.1, SVG Export Plug-In . SVG Version: 6.00 Build 0)  -->
<svg version="1.1" id="Layer_1" xmlns="http://www.w3.org/2000/svg" xmlns:xlink="http://www.w3.org/1999/xlink" x="0px" y="0px"
	 viewBox="0 0 1000 1000" style="enable-background:new 0 0 1000 1000;" xml:space="preserve">
<style type="text/css">
	.st0{fill:#C4C4C4;}
</style>
<g>
	<path class="st0" d="M551,581.7H265.2c-28.2,0-51.1,22.9-51.1,51.1s22.9,51.1,51.1,51.1H551c28.2,0,51-22.9,51-51.1
		S579.2,581.7,551,581.7z M10,806.2c0,45.1,36.5,81.7,81.7,81.7h816.7c45.1,0,81.7-36.5,81.7-81.7V193.8c0-45.1-36.5-81.7-81.7-81.7
		H91.7c-45.1,0-81.7,36.5-81.7,81.7V806.2z M157,214.2h686c24.9,0,44.9,20,44.9,44.9v57.2H112.1v-57.2
		C112.1,234.2,132.1,214.2,157,214.2L157,214.2z M112.1,479.6h775.8v261.3c0,24.9-20,44.9-44.9,44.9H157c-24.9,0-44.9-20-44.9-44.9
		V479.6L112.1,479.6z"/>
</g>
</svg>
