<svg viewBox="0 0 13 17" fill="none" xmlns="http://www.w3.org/2000/svg">
<path d="M6.5 11.2856C6.94873 11.2856 7.3125 10.9218 7.3125 10.4731C7.3125 10.0244 6.94873 9.66061 6.5 9.66061C6.05127 9.66061 5.6875 10.0244 5.6875 10.4731C5.6875 10.9218 6.05127 11.2856 6.5 11.2856Z" fill="#717171"/>
<path d="M10.5625 4.78563H9.75V3.25C9.75 2.38805 9.40759 1.5614 8.7981 0.951903C8.1886 0.34241 7.36195 0 6.5 0C5.63805 0 4.8114 0.34241 4.2019 0.951903C3.59241 1.5614 3.25 2.38805 3.25 3.25V4.78563H2.4375C1.79103 4.78563 1.17105 5.04243 0.713927 5.49955C0.256807 5.95667 0 6.57666 0 7.22313V13.7231C0 14.3696 0.256807 14.9896 0.713927 15.4467C1.17105 15.9038 1.79103 16.1606 2.4375 16.1606H10.5625C11.209 16.1606 11.829 15.9038 12.2861 15.4467C12.7432 14.9896 13 14.3696 13 13.7231V7.22313C13 6.57666 12.7432 5.95667 12.2861 5.49955C11.829 5.04243 11.209 4.78563 10.5625 4.78563ZM4.875 3.25C4.86407 2.80743 5.02893 2.37855 5.33348 2.05725C5.63803 1.73594 6.05748 1.54838 6.5 1.53563C6.94252 1.54838 7.36197 1.73594 7.66652 2.05725C7.97107 2.37855 8.13593 2.80743 8.125 3.25V4.78563H4.875V3.25ZM6.5 12.9106C6.01791 12.9106 5.54664 12.7677 5.1458 12.4998C4.74495 12.232 4.43253 11.8513 4.24804 11.4059C4.06355 10.9605 4.01528 10.4704 4.10934 9.99759C4.20339 9.52477 4.43554 9.09044 4.77643 8.74955C5.11732 8.40866 5.55164 8.17651 6.02447 8.08246C6.4973 7.98841 6.9874 8.03668 7.43279 8.22117C7.87819 8.40566 8.25887 8.71808 8.52671 9.11892C8.79454 9.51977 8.9375 9.99103 8.9375 10.4731C8.9375 11.1196 8.68069 11.7396 8.22357 12.1967C7.76645 12.6538 7.14647 12.9106 6.5 12.9106Z" fill="#717171"/>
</svg>
