<svg width="22" height="22" viewBox="0 0 22 22" fill="none" xmlns="http://www.w3.org/2000/svg">
<path d="M11.0832 0C5.06381 0 0.166626 4.89718 0.166626 10.9166C0.166626 16.936 5.06381 21.8332 11.0832 21.8332C17.1026 21.8332 21.9998 16.936 21.9998 10.9166C21.9998 4.89718 17.1026 0 11.0832 0ZM11.0832 19.6499C6.26791 19.6499 2.34994 15.7319 2.34994 10.9166C2.34994 6.10128 6.26791 2.18332 11.0832 2.18332C15.8985 2.18332 19.8165 6.10128 19.8165 10.9166C19.8165 15.7319 15.8985 19.6499 11.0832 19.6499Z" fill="#C4C4C4"/>
<path d="M12.1749 5.4585H9.99155V11.3687L13.5864 14.9636L15.13 13.42L12.1749 10.4648V5.4585Z" fill="#C4C4C4"/>
</svg>
