<svg width="36" height="36" viewBox="0 0 36 36" fill="none" xmlns="http://www.w3.org/2000/svg">
<circle cx="18" cy="18" r="18" fill="white"/>
<path d="M17.0128 18.2499L14.5383 15.7754C14.379 15.6103 14.2908 15.3893 14.2928 15.1599C14.2948 14.9305 14.3868 14.711 14.549 14.5488C14.7112 14.3866 14.9307 14.2945 15.1601 14.2925C15.3895 14.2905 15.6106 14.3787 15.7756 14.5381L18.2501 17.0126L20.7246 14.5381C20.8053 14.4546 20.9019 14.3879 21.0086 14.342C21.1154 14.2962 21.2302 14.272 21.3464 14.271C21.4626 14.27 21.5778 14.2922 21.6853 14.3362C21.7928 14.3802 21.8905 14.4451 21.9727 14.5273C22.0548 14.6094 22.1198 14.7071 22.1638 14.8147C22.2078 14.9222 22.23 15.0374 22.2289 15.1536C22.2279 15.2698 22.2038 15.3846 22.1579 15.4914C22.1121 15.5981 22.0454 15.6947 21.9618 15.7754L19.4873 18.2499L21.9618 20.7244C22.0454 20.8051 22.1121 20.9016 22.1579 21.0084C22.2038 21.1151 22.2279 21.23 22.2289 21.3461C22.23 21.4623 22.2078 21.5776 22.1638 21.6851C22.1198 21.7926 22.0548 21.8903 21.9727 21.9725C21.8905 22.0546 21.7928 22.1196 21.6853 22.1636C21.5778 22.2076 21.4626 22.2297 21.3464 22.2287C21.2302 22.2277 21.1154 22.2036 21.0086 22.1577C20.9019 22.1119 20.8053 22.0452 20.7246 21.9616L18.2501 19.4871L15.7756 21.9616C15.6106 22.121 15.3895 22.2092 15.1601 22.2072C14.9307 22.2052 14.7112 22.1132 14.549 21.951C14.3868 21.7887 14.2948 21.5693 14.2928 21.3399C14.2908 21.1104 14.379 20.8894 14.5383 20.7244L17.0128 18.2499Z" fill="#00a9f9"/>
<path d="M18.25 28.75C19.6289 28.75 20.9943 28.4784 22.2682 27.9507C23.5421 27.4231 24.6996 26.6496 25.6746 25.6746C26.6496 24.6996 27.4231 23.5421 27.9507 22.2682C28.4784 20.9943 28.75 19.6289 28.75 18.25C28.75 16.8711 28.4784 15.5057 27.9507 14.2318C27.4231 12.9579 26.6496 11.8004 25.6746 10.8254C24.6996 9.85036 23.5421 9.07694 22.2682 8.54926C20.9943 8.02159 19.6289 7.75 18.25 7.75C15.4652 7.75 12.7945 8.85625 10.8254 10.8254C8.85625 12.7945 7.75 15.4652 7.75 18.25C7.75 21.0348 8.85625 23.7055 10.8254 25.6746C12.7945 27.6438 15.4652 28.75 18.25 28.75ZM18.25 30.5C15.0011 30.5 11.8853 29.2094 9.58794 26.9121C7.29062 24.6147 6 21.4989 6 18.25C6 15.0011 7.29062 11.8853 9.58794 9.58794C11.8853 7.29062 15.0011 6 18.25 6C21.4989 6 24.6147 7.29062 26.9121 9.58794C29.2094 11.8853 30.5 15.0011 30.5 18.25C30.5 21.4989 29.2094 24.6147 26.9121 26.9121C24.6147 29.2094 21.4989 30.5 18.25 30.5Z" fill="#00a9f9"/>
</svg>
