<svg width="18" height="18" viewBox="0 0 18 18" fill="none" xmlns="http://www.w3.org/2000/svg">
<path d="M17.3724 0.627437C16.9485 0.203615 16.2688 0.203615 15.845 0.627437L8.9999 7.47256L2.15479 0.627437C1.73097 0.203615 1.05126 0.203615 0.627436 0.627437C0.203615 1.05126 0.203615 1.73097 0.627436 2.15479L7.47255 8.99991L0.627436 15.845C0.203615 16.2689 0.203615 16.9486 0.627436 17.3724C0.835348 17.5803 1.11523 17.6923 1.38712 17.6923C1.659 17.6923 1.93888 17.5883 2.14679 17.3724L8.99191 10.5273L15.837 17.3724C16.0449 17.5803 16.3248 17.6923 16.5967 17.6923C16.8766 17.6923 17.1485 17.5883 17.3564 17.3724C17.7802 16.9486 17.7802 16.2689 17.3564 15.845L10.5273 8.99991L17.3724 2.15479C17.7962 1.73097 17.7962 1.05126 17.3724 0.627437Z" fill="#C4C4C4"/>
</svg>
