<svg width="12" height="7" viewBox="0 0 12 7" fill="none" xmlns="http://www.w3.org/2000/svg">
<path d="M5.74767 4.82844L9.86293 0.713363C9.97597 0.600054 10.1271 0.537721 10.2883 0.537721C10.4495 0.537721 10.6006 0.600054 10.7138 0.713363L11.0742 1.07395C11.1876 1.18708 11.25 1.33831 11.25 1.49946C11.25 1.66062 11.1876 1.81166 11.0742 1.92488L6.17462 6.82453C6.06104 6.9382 5.90928 7.00044 5.74794 7C5.58589 7.00044 5.43431 6.93829 5.32064 6.82453L0.425822 1.92944C0.312424 1.81622 0.25 1.66518 0.25 1.50393C0.25 1.34278 0.312424 1.19173 0.425822 1.07842L0.786228 0.717924C1.02081 0.483347 1.40268 0.483347 1.63716 0.717924L5.74767 4.82844Z" fill="#C4C4C4"/>
</svg>
