<svg width="28" height="28" viewBox="0 0 28 28" fill="none" xmlns="http://www.w3.org/2000/svg">
<rect width="28" height="28" rx="4" fill="#46CEAC" fill-opacity="0.2"/>
<path d="M18.1183 11.8374C17.9904 11.7094 17.764 11.7094 17.6362 11.8374L11.1519 18.3271C11.0744 18.4047 11.0391 18.5147 11.0564 18.623C11.074 18.7313 11.1426 18.8246 11.2405 18.8736L11.7728 19.1401V20.0366L10.1418 20.5033L8.49556 18.8556L8.96186 17.2232H9.85754L10.1239 17.756C10.1728 17.8539 10.266 17.9226 10.3742 17.9402C10.3925 17.9432 10.4108 17.9446 10.4288 17.9446C10.5183 17.9446 10.6056 17.9092 10.6698 17.8446L17.1541 11.3549C17.218 11.2909 17.254 11.2043 17.254 11.1136C17.254 11.023 17.218 10.9364 17.1541 10.8724L15.9003 9.61755C15.8364 9.55357 15.7499 9.51758 15.6593 9.51758H15.6586C15.5677 9.5179 15.4808 9.55424 15.4173 9.61854L8.46261 16.6418C8.45925 16.6452 8.45941 16.6504 8.45618 16.6539C8.42119 16.6917 8.39197 16.7354 8.3767 16.7884L7.78476 18.8612L7.01308 21.5652C6.97911 21.6841 7.01241 21.8124 7.09998 21.9001C7.1649 21.965 7.2518 22 7.34103 22C7.37232 22 7.40361 21.9957 7.43458 21.987L10.1362 21.2147L12.2073 20.6222C12.2135 20.6204 12.2178 20.6158 12.2239 20.6136C12.2454 20.6062 12.2642 20.5941 12.284 20.5824C12.3035 20.5709 12.3229 20.5606 12.3393 20.5458C12.3437 20.5419 12.3495 20.5405 12.3538 20.5363L19.371 13.5757C19.4353 13.5121 19.4716 13.4251 19.4719 13.3341C19.4722 13.2435 19.4363 13.1565 19.372 13.0922L18.1183 11.8374Z" fill="#46CEAC"/>
<path d="M21.6007 9.43428L19.5553 7.3871C19.0399 6.8713 18.1433 6.87031 17.626 7.38809L16.3772 8.64927C16.245 8.7829 16.2454 8.9978 16.3782 9.13075L19.8585 12.614C19.9251 12.6807 20.0123 12.714 20.0996 12.714C20.1865 12.714 20.273 12.681 20.3396 12.6151L21.6007 11.3642C21.8584 11.1063 22.0002 10.7638 22.0002 10.3993C22.0002 10.0348 21.8584 9.69217 21.6007 9.43428Z" fill="#46CEAC"/>
</svg>
