<svg width="25" height="19" viewBox="0 0 25 19" fill="none" xmlns="http://www.w3.org/2000/svg">
<path d="M21.9187 0H3.05302C1.36895 0 0 1.36895 0 3.05302V15.947C0 17.6311 1.36895 19 3.05302 19H21.9135C23.5976 19 24.9666 17.6311 24.9666 15.947V3.05818C24.9717 1.37412 23.6028 0 21.9187 0ZM23.5769 15.947C23.5769 16.8613 22.8331 17.6052 21.9187 17.6052H3.05302C2.13866 17.6052 1.39478 16.8613 1.39478 15.947V3.05818C1.39478 2.14383 2.13866 1.39995 3.05302 1.39995H21.9135C22.8279 1.39995 23.5718 2.14383 23.5718 3.05818V15.947H23.5769Z" fill="#C4C4C4"/>
<path d="M15.7454 9.33974L21.8515 3.86394C22.1356 3.60564 22.1614 3.16654 21.9031 2.87726C21.6448 2.59314 21.2057 2.56731 20.9165 2.8256L12.4961 10.3832L10.8534 8.91614C10.8482 8.91097 10.843 8.90581 10.843 8.90064C10.8069 8.86448 10.7707 8.83348 10.7294 8.80249L4.04478 2.82043C3.75549 2.56214 3.3164 2.58797 3.0581 2.87726C2.79981 3.16654 2.82564 3.60564 3.11493 3.86394L9.29329 9.38623L3.14076 15.1462C2.8618 15.4096 2.8463 15.8487 3.10976 16.1328C3.24924 16.2775 3.43521 16.355 3.62118 16.355C3.79165 16.355 3.96213 16.293 4.09644 16.169L10.342 10.3264L12.0364 11.84C12.1707 11.9588 12.336 12.0156 12.5013 12.0156C12.6666 12.0156 12.8371 11.9537 12.9662 11.8348L14.7071 10.2748L20.9165 16.1742C21.0508 16.3033 21.2264 16.3653 21.3969 16.3653C21.5828 16.3653 21.7637 16.293 21.9031 16.1483C22.1666 15.8694 22.1563 15.4251 21.8773 15.1617L15.7454 9.33974Z" fill="#C4C4C4"/>
</svg>
