<svg width="24" height="25" viewBox="0 0 24 25" fill="none" xmlns="http://www.w3.org/2000/svg">
<path d="M4.38226 0.00683594C1.95468 0.00683594 0 1.96151 0 4.38908V19.6246C0 22.0521 1.95468 24.0068 4.38226 24.0068H12.6398V14.6243H10.1588V11.2463H12.6398V8.36033C12.6398 6.09294 14.1057 4.01108 17.4825 4.01108C18.8497 4.01108 19.8608 4.14234 19.8608 4.14234L19.7813 7.29685C19.7813 7.29685 18.7501 7.2871 17.625 7.2871C16.4073 7.2871 16.212 7.84817 16.212 8.77961V11.2463H19.878L19.7183 14.6243H16.212V24.0068H19.6177C22.0453 24.0068 24 22.0522 24 19.6246V4.38911C24 1.96154 22.0453 0.00685994 19.6177 0.00685994H4.38223L4.38226 0.00683594Z" fill="white"/>
</svg>
