<svg width="10" height="23" viewBox="0 0 10 23" fill="none" xmlns="http://www.w3.org/2000/svg">
<path d="M2.16142 4.45471C2.16142 5.034 2.16142 7.62135 2.16142 7.62135H0V11.4937H2.16142V23H6.60141V11.4937H9.58086C9.58086 11.4937 9.85999 9.63659 9.99503 7.60677C9.60721 7.60677 6.61834 7.60677 6.61834 7.60677C6.61834 7.60677 6.61834 5.35368 6.61834 4.95886C6.61834 4.56347 7.10222 4.03128 7.58083 4.03128C8.05862 4.03128 9.06669 4.03128 10 4.03128C10 3.50354 10 1.68217 10 1.10567e-08C8.75385 1.10567e-08 7.33614 1.10567e-08 6.71084 1.10567e-08C2.05148 -0.000239035 2.16142 3.87574 2.16142 4.45471Z" fill="white"/>
</svg>
