<svg width="20" height="20" viewBox="0 0 20 20" fill="none" xmlns="http://www.w3.org/2000/svg">
<path d="M9.30196 0.702041L9.30196 9.64082C8.00809 9.9551 7.04482 11.1224 7.04482 12.5143C7.04482 13.9061 8.00809 15.0694 9.30196 15.3878L9.30196 19.298C9.30196 19.6857 9.61625 20 10.004 20C10.3918 20 10.702 19.6857 10.702 19.298L10.702 15.3878C11.9958 15.0735 12.9591 13.9061 12.9591 12.5143C12.9591 11.1224 11.9958 9.95918 10.702 9.64082L10.702 0.702041C10.702 0.314286 10.3877 -1.12401e-07 10.004 -1.29172e-07C9.61217 0.00408149 9.30196 0.318367 9.30196 0.702041ZM11.555 12.5143C11.555 13.3714 10.8571 14.0694 9.99992 14.0694C9.14278 14.0694 8.44482 13.3714 8.44482 12.5143C8.44482 11.6571 9.14278 10.9551 9.99992 10.9551C10.8571 10.9551 11.555 11.6531 11.555 12.5143Z" fill="#104378"/>
<path d="M2.51425 0.702041L2.51425 4.99184C1.22037 5.30612 0.257106 6.47347 0.257106 7.86531C0.257106 9.25714 1.22037 10.4204 2.51425 10.7388L2.51425 19.298C2.51425 19.6857 2.82853 20 3.21221 20C3.59996 20 3.91424 19.6857 3.91424 19.298L3.91425 10.7388C5.20812 10.4245 6.17139 9.25714 6.17139 7.86531C6.17139 6.47347 5.20812 5.3102 3.91425 4.99184L3.91425 0.702041C3.91425 0.314286 3.59996 -1.12401e-07 3.21221 -1.2935e-07C2.82853 0.00408149 2.51425 0.318367 2.51425 0.702041ZM4.77139 7.86531C4.77139 8.72245 4.07343 9.42041 3.21629 9.42041C2.35914 9.42041 1.66119 8.72245 1.66119 7.86531C1.66119 7.02041 2.33874 6.33061 3.18363 6.3102C3.19588 6.3102 3.20812 6.3102 3.22037 6.3102C3.23261 6.3102 3.24486 6.3102 3.2571 6.3102C4.09384 6.33061 4.77139 7.02041 4.77139 7.86531Z" fill="#104378"/>
<path d="M16.0857 0.702041L16.0857 4.99184C14.7918 5.30612 13.8285 6.47347 13.8285 7.86531C13.8285 9.25714 14.7918 10.4204 16.0857 10.7388L16.0857 19.298C16.0857 19.6857 16.3999 20 16.7877 20C17.1755 20 17.4857 19.6857 17.4857 19.298L17.4857 10.7388C18.7795 10.4245 19.7428 9.25714 19.7428 7.86531C19.7428 6.47347 18.7795 5.3102 17.4857 4.99184L17.4857 0.702041C17.4857 0.314286 17.1714 -1.12401e-07 16.7877 -1.29172e-07C16.3999 0.00408149 16.0857 0.318367 16.0857 0.702041ZM18.3428 7.86531C18.3428 8.72245 17.6448 9.42041 16.7877 9.42041C15.9306 9.42041 15.2326 8.72245 15.2326 7.86531C15.2326 7.02041 15.9101 6.33061 16.755 6.3102C16.7673 6.3102 16.7795 6.3102 16.7918 6.3102C16.804 6.3102 16.8163 6.3102 16.8285 6.3102C17.6612 6.33061 18.3428 7.02041 18.3428 7.86531Z" fill="#104378"/>
</svg>
