<svg width="22" height="23" viewBox="0 0 22 23" fill="none" xmlns="http://www.w3.org/2000/svg">
<path d="M10.535 1.04878C10.7186 1.16222 10.9231 1.32757 11.1512 1.54533C11.3701 1.77247 11.5841 2.05185 11.7943 2.38179C11.9954 2.69441 12.1737 3.06219 12.3294 3.48792C12.4569 3.91306 12.5208 4.40986 12.5208 4.97716C12.5042 6.01723 12.2742 6.84892 11.8316 7.47356C11.6161 7.77588 11.3861 8.05467 11.1437 8.31061C10.8752 8.5647 10.5895 8.82558 10.2872 9.09005C10.113 9.26955 9.95389 9.47258 9.80629 9.69997C9.63341 9.93614 9.54659 10.21 9.54659 10.5217C9.54659 10.8265 9.63525 11.0762 9.81349 11.2742C9.96352 11.4634 10.1111 11.6291 10.2533 11.771L11.2398 12.5792C11.8522 13.0817 12.3898 13.6318 12.8518 14.2373C13.2869 14.8529 13.5131 15.6562 13.5326 16.6483C13.5326 18.057 12.9098 19.3045 11.6655 20.393C10.3767 21.5189 8.5143 22.0994 6.08178 22.1367C4.04525 22.1182 2.52495 21.684 1.5203 20.836C0.507854 20.0425 0 19.0945 0 17.9903C0 17.4531 0.164178 16.8522 0.495631 16.1918C0.814526 15.5324 1.39379 14.9513 2.23302 14.451C3.1738 13.9141 4.16305 13.555 5.19994 13.3749C6.2262 13.2249 7.07798 13.139 7.75679 13.1208C7.5469 12.8445 7.35987 12.55 7.19603 12.2368C7.00464 11.9323 6.9097 11.5654 6.9097 11.1391C6.9097 10.8825 6.9457 10.6674 7.0187 10.4972C7.08233 10.3156 7.14211 10.1511 7.19603 9.99793C6.86583 10.0352 6.55413 10.0549 6.26278 10.0549C4.71461 10.0352 3.53489 9.54843 2.72321 8.59417C1.87268 7.70421 1.44788 6.66917 1.44788 5.48811C1.44788 4.0599 2.04933 2.76549 3.25383 1.60235C4.08025 0.921941 4.9389 0.478971 5.82952 0.269081C6.7117 0.0895823 7.53836 0 8.30902 0H14.1236L12.3282 1.04853H10.5348V1.04878H10.535ZM11.6575 17.7841C11.6575 17.0458 11.4168 16.4039 10.9366 15.8557C10.4266 15.3359 9.6309 14.6981 8.54762 13.9406C8.36151 13.9209 8.14417 13.9121 7.89476 13.9121C7.74658 13.8939 7.3669 13.9121 6.75632 13.9688C6.15453 14.054 5.53834 14.1912 4.90901 14.3804C4.76049 14.4368 4.55311 14.5223 4.2847 14.6354C4.01654 14.7586 3.74335 14.934 3.46515 15.1604C3.19665 15.3966 2.96952 15.6896 2.78533 16.0404C2.57134 16.4095 2.46643 16.8537 2.46643 17.3731C2.46643 18.395 2.92791 19.2368 3.85328 19.899C4.73353 20.5603 5.93618 20.9005 7.46435 20.9202C8.83429 20.9005 9.88055 20.5985 10.6017 20.0124C11.3057 19.4344 11.6575 18.6929 11.6575 17.7841ZM7.60475 9.26202C8.37005 9.2338 9.00784 8.95811 9.51754 8.43686C9.7641 8.06748 9.922 7.68847 9.99215 7.30001C10.0344 6.91154 10.056 6.58544 10.056 6.31913C10.056 5.17382 9.76251 4.01662 9.17637 2.85281C8.90101 2.29455 8.53883 1.83877 8.08992 1.48857C7.63163 1.15837 7.10468 0.982304 6.50951 0.963216C5.72136 0.982304 5.06724 1.29969 4.5444 1.91588C4.10394 2.55962 3.89313 3.27987 3.91289 4.07589C3.91289 5.12693 4.2199 6.22025 4.83516 7.35803C5.13338 7.8884 5.51716 8.33824 5.98952 8.70787C6.46036 9.07783 6.99827 9.26202 7.60475 9.26202Z" fill="white"/>
<path d="M22 3.17608H18.9498V0.124268H17.4714V3.17608H14.4211V4.65377H17.4714V7.70441H18.9498V4.65377H22V3.17608Z" fill="white"/>
</svg>
