<?xml version="1.0" encoding="utf-8"?>
<!-- Generator: Adobe Illustrator 24.2.1, SVG Export Plug-In . SVG Version: 6.00 Build 0)  -->
<svg version="1.1" id="Layer_1" xmlns="http://www.w3.org/2000/svg" xmlns:xlink="http://www.w3.org/1999/xlink" x="0px" y="0px"
	 viewBox="0 0 18 15" style="enable-background:new 0 0 18 15;" xml:space="preserve">
<style type="text/css">
	.st0{fill:#717171;}
</style>
<path class="st0" d="M16.33,2.31H13.5l-0.68-1.87c-0.05-0.13-0.13-0.24-0.24-0.32C12.47,0.04,12.33,0,12.2,0H5.8
	C5.52,0,5.27,0.18,5.18,0.44L4.5,2.31H1.67C0.75,2.31,0,3.05,0,3.96v9.4C0,14.26,0.75,15,1.67,15h14.67c0.92,0,1.67-0.74,1.67-1.65
	v-9.4C18,3.05,17.25,2.31,16.33,2.31z M9,11.7c-1.84,0-3.33-1.48-3.33-3.3c0-1.82,1.49-3.3,3.33-3.3c1.84,0,3.33,1.48,3.33,3.3
	C12.33,10.23,10.84,11.7,9,11.7z M7,8.41c0,0.52,0.21,1.03,0.59,1.4c0.38,0.37,0.88,0.58,1.41,0.58s1.04-0.21,1.41-0.58
	C10.79,9.43,11,8.93,11,8.41c0-0.52-0.21-1.03-0.59-1.4C10.04,6.64,9.53,6.43,9,6.43S7.96,6.64,7.59,7.01C7.21,7.38,7,7.88,7,8.41z"
	/>
</svg>
