<svg width="27" height="27" viewBox="0 0 27 27" fill="none" xmlns="http://www.w3.org/2000/svg">
<path d="M2.20833 26.5C2.20833 26.5 0 26.5 0 24.2917C0 22.0833 2.20833 15.4583 13.25 15.4583C24.2917 15.4583 26.5 22.0833 26.5 24.2917C26.5 26.5 24.2917 26.5 24.2917 26.5H2.20833ZM13.25 13.25C15.0071 13.25 16.6922 12.552 17.9346 11.3096C19.177 10.0672 19.875 8.38206 19.875 6.625C19.875 4.86794 19.177 3.18285 17.9346 1.94042C16.6922 0.697989 15.0071 0 13.25 0C11.4929 0 9.80785 0.697989 8.56542 1.94042C7.32299 3.18285 6.625 4.86794 6.625 6.625C6.625 8.38206 7.32299 10.0672 8.56542 11.3096C9.80785 12.552 11.4929 13.25 13.25 13.25Z" fill="#767576"/>
</svg>
