<svg width="26" height="26" viewBox="0 0 26 26" fill="none" xmlns="http://www.w3.org/2000/svg">
<path d="M13 8.84119C10.7063 8.84119 8.8344 10.7131 8.8344 13.0068C8.8344 15.3006 10.7063 17.1724 13 17.1724C15.2938 17.1724 17.1657 15.3006 17.1657 13.0068C17.1657 10.7131 15.2938 8.84119 13 8.84119ZM25.4938 13.0068C25.4938 11.2818 25.5094 9.57244 25.4125 7.85056C25.3157 5.85056 24.8594 4.07556 23.3969 2.61306C21.9313 1.14744 20.1594 0.694313 18.1594 0.597438C16.4344 0.500563 14.725 0.516188 13.0031 0.516188C11.2781 0.516188 9.56878 0.500563 7.8469 0.597438C5.8469 0.694313 4.0719 1.15056 2.6094 2.61306C1.14378 4.07869 0.690651 5.85056 0.593776 7.85056C0.496901 9.57556 0.512526 11.2849 0.512526 13.0068C0.512526 14.7287 0.496901 16.4412 0.593776 18.1631C0.690651 20.1631 1.1469 21.9381 2.6094 23.4006C4.07503 24.8662 5.8469 25.3193 7.8469 25.4162C9.5719 25.5131 11.2813 25.4974 13.0031 25.4974C14.7282 25.4974 16.4375 25.5131 18.1594 25.4162C20.1594 25.3193 21.9344 24.8631 23.3969 23.4006C24.8625 21.9349 25.3157 20.1631 25.4125 18.1631C25.5125 16.4412 25.4938 14.7318 25.4938 13.0068ZM13 19.4162C9.45315 19.4162 6.59065 16.5537 6.59065 13.0068C6.59065 9.45994 9.45315 6.59744 13 6.59744C16.5469 6.59744 19.4094 9.45994 19.4094 13.0068C19.4094 16.5537 16.5469 19.4162 13 19.4162ZM19.6719 7.83181C18.8438 7.83181 18.175 7.16306 18.175 6.33494C18.175 5.50681 18.8438 4.83806 19.6719 4.83806C20.5 4.83806 21.1688 5.50681 21.1688 6.33494C21.169 6.53158 21.1305 6.72634 21.0553 6.90806C20.9802 7.08978 20.8699 7.25489 20.7309 7.39394C20.5919 7.53299 20.4267 7.64324 20.245 7.71837C20.0633 7.79351 19.8685 7.83206 19.6719 7.83181Z" fill="white"/>
</svg>
