<svg width="42" height="42" viewBox="0 0 42 42" fill="none" xmlns="http://www.w3.org/2000/svg">
<circle cx="21" cy="21" r="21" fill="black" fill-opacity="0.25"/>
<path d="M18.4956 21.0055L28.2221 11.2785C28.4899 11.0113 28.6373 10.6541 28.6373 10.2732C28.6373 9.89208 28.4899 9.53506 28.2221 9.26745L27.3698 8.41558C27.1024 8.14754 26.745 8 26.3641 8C25.9832 8 25.6261 8.14754 25.3585 8.41558L13.7775 19.9964C13.5089 20.2648 13.3617 20.6235 13.3628 21.0049C13.3617 21.3879 13.5087 21.7462 13.7775 22.0148L25.3477 33.5844C25.6154 33.8525 25.9724 34 26.3535 34C26.7344 34 27.0914 33.8525 27.3593 33.5844L28.2113 32.7326C28.7658 32.1781 28.7658 31.2755 28.2113 30.7213L18.4956 21.0055Z" fill="white"/>
</svg>
