<?xml version="1.0" encoding="utf-8"?>
<!-- Generator: Adobe Illustrator 24.2.1, SVG Export Plug-In . SVG Version: 6.00 Build 0)  -->
<svg version="1.1" id="Layer_1" xmlns="http://www.w3.org/2000/svg" xmlns:xlink="http://www.w3.org/1999/xlink" x="0px" y="0px"
	 viewBox="0 0 36 36" style="enable-background:new 0 0 36 36;" xml:space="preserve">
<style type="text/css">
	.st0{fill:#FFFFFF;}
	.st1{fill:red;stroke:red;stroke-width:2;stroke-linecap:round;stroke-linejoin:round;}
</style>
<circle class="st0" cx="18" cy="18" r="18"/>
<path class="st1" d="M25.4,11.8c-0.4-0.4-0.9-0.8-1.5-1c-0.6-0.2-1.2-0.3-1.8-0.3c-0.6,0-1.2,0.1-1.8,0.3c-0.6,0.2-1.1,0.6-1.5,1
	L18,12.7l-0.9-0.9c-0.9-0.9-2-1.3-3.2-1.3c-1.2,0-2.4,0.5-3.2,1.3c-0.9,0.9-1.3,2-1.3,3.2s0.5,2.4,1.3,3.2l0.9,0.9l6.5,6.5l6.5-6.5
	l0.9-0.9c0.4-0.4,0.8-0.9,1-1.5c0.2-0.6,0.3-1.2,0.3-1.8c0-0.6-0.1-1.2-0.3-1.8C26.1,12.8,25.8,12.3,25.4,11.8L25.4,11.8z"/>
</svg>
