<svg  viewBox="0 0 36 36" fill="none" xmlns="http://www.w3.org/2000/svg">
<circle cx="18" cy="18" r="18" fill="white"/>
<path d="M25.3666 11.8417C24.941 11.4159 24.4356 11.0781 23.8794 10.8476C23.3232 10.6172 22.727 10.4985 22.1249 10.4985C21.5229 10.4985 20.9267 10.6172 20.3705 10.8476C19.8143 11.0781 19.3089 11.4159 18.8833 11.8417L17.9999 12.7251L17.1166 11.8417C16.2569 10.982 15.0908 10.499 13.8749 10.499C12.6591 10.499 11.493 10.982 10.6333 11.8417C9.77353 12.7015 9.29053 13.8675 9.29053 15.0834C9.29053 16.2993 9.77353 17.4653 10.6333 18.3251L11.5166 19.2084L17.9999 25.6917L24.4833 19.2084L25.3666 18.3251C25.7924 17.8994 26.1302 17.3941 26.3607 16.8379C26.5912 16.2816 26.7098 15.6855 26.7098 15.0834C26.7098 14.4813 26.5912 13.8851 26.3607 13.3289C26.1302 12.7727 25.7924 12.2674 25.3666 11.8417V11.8417Z" stroke="red" stroke-width="2" stroke-linecap="round" stroke-linejoin="round"/>
</svg>
