<svg xmlns="http://www.w3.org/2000/svg" width="307.505" height="46.832" viewBox="0 0 307.505 46.832">
  <g id="Group_234" data-name="Group 234" transform="translate(508.005 -649.999)">
    <g id="Group_232" data-name="Group 232" transform="translate(-797.296 398.874)">
      <g id="Group_231" data-name="Group 231" transform="translate(307.298 275.177)">
        <g id="Group_227" data-name="Group 227" transform="translate(8.363)">
          <path id="Rectangle_23" data-name="Rectangle 23" d="M2.567,0h0A2.567,2.567,0,0,1,5.134,2.567h0A2.567,2.567,0,0,1,2.567,5.136h0A2.567,2.567,0,0,1,0,2.57H0A2.567,2.567,0,0,1,2.567,0Z" fill="#fff"/>
        </g>
        <g id="Group_228" data-name="Group 228">
          <path id="Rectangle_24" data-name="Rectangle 24" d="M2.568,0h0A2.567,2.567,0,0,1,5.135,2.567h0A2.567,2.567,0,0,1,2.568,5.136h0A2.567,2.567,0,0,1,0,2.569H0A2.568,2.568,0,0,1,2.568,0Z" fill="#fff"/>
        </g>
        <g id="Group_229" data-name="Group 229" transform="translate(8.363 8.364)">
          <path id="Rectangle_25" data-name="Rectangle 25" d="M2.566,0h0A2.567,2.567,0,0,1,5.134,2.567h0A2.567,2.567,0,0,1,2.568,5.133h0A2.567,2.567,0,0,1,0,2.567H0A2.566,2.566,0,0,1,2.566,0Z" fill="#fff"/>
        </g>
        <g id="Group_230" data-name="Group 230" transform="translate(0 8.364)">
          <path id="Rectangle_26" data-name="Rectangle 26" d="M2.566,0h0A2.566,2.566,0,0,1,5.135,2.566h0A2.566,2.566,0,0,1,2.569,5.133h0A2.567,2.567,0,0,1,0,2.566H0A2.566,2.566,0,0,1,2.566,0Z" fill="#fff"/>
        </g>
      </g>
      <path id="Path_221" data-name="Path 221" d="M338.387,272.311l-23.1-20.725a1.911,1.911,0,0,0-2.489,0l-6.941,6.228v-2.1a1.257,1.257,0,0,0-1.254-1.254h-2.3a1.257,1.257,0,0,0-1.253,1.254v6.411L289.7,272.309c-.684.615-.492,1.117.427,1.117h2.179a1.677,1.677,0,0,1,1.672,1.673v21.186a1.676,1.676,0,0,0,1.672,1.672h3.485v-17.22a14.905,14.905,0,1,1,14.9,14.9,16.723,16.723,0,0,1-5.867-1.2l-5.474,3.517h29.735a1.676,1.676,0,0,0,1.671-1.672V275.1a1.677,1.677,0,0,1,1.672-1.673h2.179C338.88,273.428,339.073,272.926,338.387,272.311Z" fill="#fff"/>
    </g>
    <path id="Property" d="M114.746-22.6V-3.718h3.182V-22.6Zm1.888,2.8h3.8a4.216,4.216,0,0,1,2.643.769,2.7,2.7,0,0,1,1,2.279,2.736,2.736,0,0,1-1,2.292,4.165,4.165,0,0,1-2.643.782h-3.8v2.8h3.8a8.317,8.317,0,0,0,3.587-.715,5.561,5.561,0,0,0,2.36-2.036,5.659,5.659,0,0,0,.85-3.128,5.592,5.592,0,0,0-.85-3.115,5.594,5.594,0,0,0-2.36-2.023,8.317,8.317,0,0,0-3.587-.715h-3.8Zm17.611,7.066,5.987,9.008h3.857l-6.419-9.008Zm-3.91-9.866V-3.718h3.182V-22.6Zm1.888,2.751h3.8a4.492,4.492,0,0,1,1.915.378,2.983,2.983,0,0,1,1.268,1.079,3.088,3.088,0,0,1,.458,1.726,3.1,3.1,0,0,1-.458,1.713,2.864,2.864,0,0,1-1.268,1.079,4.635,4.635,0,0,1-1.915.364h-3.8v2.643h3.938a8.185,8.185,0,0,0,3.587-.728,5.652,5.652,0,0,0,2.36-2.05,5.609,5.609,0,0,0,.85-3.1,5.543,5.543,0,0,0-.85-3.088,5.686,5.686,0,0,0-2.36-2.036,8.185,8.185,0,0,0-3.587-.728h-3.938Zm16.451,6.688a7.085,7.085,0,0,1,.836-3.466,6.194,6.194,0,0,1,2.279-2.387,6.311,6.311,0,0,1,3.3-.863,6.415,6.415,0,0,1,3.358.863,6,6,0,0,1,2.252,2.387,7.275,7.275,0,0,1,.809,3.466,7.1,7.1,0,0,1-.823,3.452,6.22,6.22,0,0,1-2.265,2.387,6.287,6.287,0,0,1-3.331.877,6.236,6.236,0,0,1-3.3-.877A6.321,6.321,0,0,1,149.51-9.7a7.008,7.008,0,0,1-.836-3.457Zm-3.371,0a10.364,10.364,0,0,0,.728,3.911,9.269,9.269,0,0,0,2.05,3.128A9.473,9.473,0,0,0,151.2-4.055a10.1,10.1,0,0,0,3.9.742,10.141,10.141,0,0,0,3.938-.742,9.509,9.509,0,0,0,3.1-2.063,9.269,9.269,0,0,0,2.05-3.128,10.364,10.364,0,0,0,.728-3.911,10.233,10.233,0,0,0-.728-3.911,9.089,9.089,0,0,0-2.063-3.088A9.775,9.775,0,0,0,159-22.2a10.069,10.069,0,0,0-3.911-.742,10.027,10.027,0,0,0-3.87.742,9.737,9.737,0,0,0-3.128,2.05,9.089,9.089,0,0,0-2.063,3.088,10.232,10.232,0,0,0-.728,3.91ZM168.038-22.6V-3.718h3.182V-22.6Zm1.888,2.8h3.8a4.216,4.216,0,0,1,2.643.769,2.7,2.7,0,0,1,1,2.279,2.737,2.737,0,0,1-1,2.292,4.165,4.165,0,0,1-2.643.782h-3.8v2.8h3.8a8.317,8.317,0,0,0,3.587-.715,5.561,5.561,0,0,0,2.36-2.036,5.659,5.659,0,0,0,.85-3.128,5.592,5.592,0,0,0-.85-3.115,5.594,5.594,0,0,0-2.36-2.023,8.317,8.317,0,0,0-3.587-.715h-3.8ZM185.6-3.718h9.52v-2.8H185.6Zm0-16.074h9.52v-2.8H185.6Zm0,7.336h8.981v-2.751H185.6ZM183.626-22.6V-3.718h3.128V-22.6Zm19.31,9.871,5.987,9.008h3.857l-6.419-9.008ZM199.025-22.6V-3.718h3.182V-22.6Zm1.888,2.751h3.8a4.492,4.492,0,0,1,1.915.378,2.983,2.983,0,0,1,1.268,1.079,3.088,3.088,0,0,1,.458,1.726,3.1,3.1,0,0,1-.458,1.713,2.864,2.864,0,0,1-1.268,1.079,4.635,4.635,0,0,1-1.915.364h-3.8v2.643h3.938a8.185,8.185,0,0,0,3.587-.728,5.652,5.652,0,0,0,2.36-2.05,5.609,5.609,0,0,0,.85-3.1,5.543,5.543,0,0,0-.85-3.088,5.686,5.686,0,0,0-2.36-2.036,8.185,8.185,0,0,0-3.587-.728h-3.937Zm12.271.189h4.989V-3.718h3.182V-19.657h4.989V-22.6h-13.16Zm26.673-2.94-4.4,8.064L231.092-22.6h-3.641l6.419,10.95v7.929h3.236v-7.956L243.5-22.6Z" transform="translate(-444 686.648)" fill="#fff"/>
    <path id="Search" d="M3.525-9.813,1.152-8.141a9.156,9.156,0,0,0,1.686,2.4A8.268,8.268,0,0,0,5.319-3.974a7.148,7.148,0,0,0,3.061.661A7.021,7.021,0,0,0,10.713-3.7a6.722,6.722,0,0,0,2.009-1.11,5.239,5.239,0,0,0,1.416-1.766,5.234,5.234,0,0,0,.526-2.373,5.113,5.113,0,0,0-.432-2.171,5.408,5.408,0,0,0-1.119-1.6,6.794,6.794,0,0,0-1.537-1.133,11.427,11.427,0,0,0-1.713-.755A17.823,17.823,0,0,1,7.409-15.66a4.323,4.323,0,0,1-1.389-1.1,2.093,2.093,0,0,1-.445-1.308,1.92,1.92,0,0,1,.62-1.416,2.688,2.688,0,0,1,1.942-.607,3.606,3.606,0,0,1,1.659.364,4.24,4.24,0,0,1,1.254.971,6.857,6.857,0,0,1,.917,1.308L14.529-18.9a7.182,7.182,0,0,0-1.321-1.915,7.192,7.192,0,0,0-2.1-1.524,6.558,6.558,0,0,0-2.913-.607,6.868,6.868,0,0,0-3.034.647A5.306,5.306,0,0,0,3.04-20.506a4.6,4.6,0,0,0-.782,2.656A4.606,4.606,0,0,0,2.77-15.6a5.242,5.242,0,0,0,1.3,1.564A8.486,8.486,0,0,0,5.71-12.982a14.586,14.586,0,0,0,1.564.661,22.3,22.3,0,0,1,2.1.877,3.962,3.962,0,0,1,1.416,1.079,2.6,2.6,0,0,1,.5,1.659,2.311,2.311,0,0,1-.809,1.834,3.1,3.1,0,0,1-2.1.7,4.1,4.1,0,0,1-1.93-.458A5.561,5.561,0,0,1,4.86-7.9,11.038,11.038,0,0,1,3.525-9.813Zm16.343,6.1h9.52v-2.8h-9.52Zm0-16.074h9.52v-2.8h-9.52Zm0,7.336h8.981V-15.2h-8.98ZM17.9-22.6V-3.718h3.128V-22.6ZM35.565-8.572h9.979l-.593-2.7H36.185ZM40.5-17.256l3.021,7.012.054.782,2.562,5.744h3.614L40.5-23.648,31.277-3.718h3.587L37.48-9.624l.054-.7Zm15.319,4.531,5.987,9.008h3.857l-6.419-9.008ZM51.908-22.6V-3.718H55.09V-22.6ZM53.8-19.845h3.8a4.492,4.492,0,0,1,1.915.378,2.983,2.983,0,0,1,1.268,1.079,3.088,3.088,0,0,1,.458,1.726,3.1,3.1,0,0,1-.458,1.713,2.864,2.864,0,0,1-1.268,1.079,4.635,4.635,0,0,1-1.915.364H53.8v2.643h3.938a8.185,8.185,0,0,0,3.587-.728,5.652,5.652,0,0,0,2.36-2.05,5.609,5.609,0,0,0,.85-3.1,5.543,5.543,0,0,0-.85-3.088,5.686,5.686,0,0,0-2.36-2.036,8.185,8.185,0,0,0-3.587-.728H53.8Zm16.532,6.688a6.679,6.679,0,0,1,.9-3.519A6.411,6.411,0,0,1,73.591-19a6.361,6.361,0,0,1,3.182-.823,7.962,7.962,0,0,1,2.441.351,7.2,7.2,0,0,1,1.955.957,8.151,8.151,0,0,1,1.51,1.362v-3.776a8.276,8.276,0,0,0-2.549-1.51,10.1,10.1,0,0,0-3.466-.512,10.358,10.358,0,0,0-3.87.715,9.233,9.233,0,0,0-3.115,2.023,9.323,9.323,0,0,0-2.063,3.1,10.242,10.242,0,0,0-.742,3.951,10.17,10.17,0,0,0,.742,3.924,9.473,9.473,0,0,0,2.063,3.115A8.97,8.97,0,0,0,72.8-4.1a10.535,10.535,0,0,0,3.87.7,10.1,10.1,0,0,0,3.466-.512A8.563,8.563,0,0,0,82.68-5.39v-3.8A7.686,7.686,0,0,1,81.17-7.8a7.2,7.2,0,0,1-1.955.957,7.962,7.962,0,0,1-2.441.351,6.281,6.281,0,0,1-3.182-.836,6.519,6.519,0,0,1-2.36-2.333,6.626,6.626,0,0,1-.9-3.5Zm17.53.782h13.485v-2.94H87.858ZM99.266-22.6V-3.718h3.182V-22.6Zm-12.676,0V-3.718h3.182V-22.6Z" transform="translate(-444 686.648)" fill="#fff"/>
  </g>
</svg>
