<svg width="22" height="26" viewBox="0 0 22 26" fill="none" xmlns="http://www.w3.org/2000/svg">
<path d="M21.9467 20.1898C21.9111 19.6998 21.8391 19.1653 21.733 18.6009C21.626 18.0322 21.4882 17.4946 21.3232 17.0033C21.1526 16.4954 20.9211 15.9939 20.6344 15.5133C20.3372 15.0145 19.988 14.5801 19.5961 14.2227C19.1863 13.8488 18.6845 13.5481 18.1043 13.3288C17.5261 13.1107 16.8854 13.0002 16.1999 13.0002C15.9308 13.0002 15.6704 13.1055 15.1677 13.4177C14.8583 13.6101 14.4963 13.8327 14.0924 14.0788C13.7469 14.2887 13.279 14.4854 12.701 14.6634C12.1371 14.8374 11.5645 14.9257 10.9992 14.9257C10.4343 14.9257 9.86172 14.8374 9.2974 14.6634C8.72001 14.4855 8.25186 14.2889 7.90704 14.079C7.50689 13.8352 7.14476 13.6126 6.83071 13.4175C6.32836 13.1053 6.06804 13 5.79885 13C5.11323 13 4.47267 13.1107 3.89467 13.329C3.31487 13.5479 2.81292 13.8486 2.40271 14.2229C2.01081 14.5805 1.66156 15.0147 1.36461 15.5133C1.07833 15.9939 0.846572 16.4952 0.67597 17.0035C0.511202 17.4948 0.373393 18.0322 0.266364 18.6009C0.16014 19.1645 0.0883187 19.6992 0.0527096 20.1904C0.017704 20.6706 0 21.1704 0 21.6754C0 22.988 0.43757 24.0507 1.30044 24.8345C2.15264 25.6078 3.28006 26 4.65152 26H17.3485C18.7195 26 19.847 25.6078 20.6994 24.8345C21.5624 24.0513 22 22.9882 22 21.6752C21.9998 21.1685 21.9819 20.6687 21.9467 20.1898ZM19.6339 23.7668C19.0708 24.2779 18.3232 24.5264 17.3483 24.5264H4.65152C3.67639 24.5264 2.9288 24.2779 2.36589 23.767C1.81365 23.2657 1.54527 22.5813 1.54527 21.6754C1.54527 21.2042 1.56157 20.7389 1.59416 20.2923C1.62595 19.8541 1.69093 19.3727 1.7873 18.8612C1.88246 18.3561 2.00357 17.882 2.14761 17.4528C2.28582 17.0413 2.47433 16.6338 2.7081 16.2412C2.93121 15.8671 3.18792 15.5461 3.47119 15.2875C3.73614 15.0456 4.0701 14.8476 4.46361 14.6991C4.82755 14.5617 5.23655 14.4865 5.68056 14.4752C5.73468 14.5026 5.83104 14.555 5.98716 14.6521C6.30483 14.8495 6.67098 15.0747 7.07575 15.3213C7.53203 15.5987 8.11989 15.8493 8.82221 16.0655C9.54023 16.2869 10.2725 16.3993 10.9994 16.3993C11.7263 16.3993 12.4588 16.2869 13.1764 16.0657C13.8793 15.8491 14.467 15.5987 14.9238 15.3209C15.3381 15.0684 15.694 14.8497 16.0116 14.6521C16.1677 14.5552 16.2641 14.5026 16.3182 14.4752C16.7624 14.4865 17.1714 14.5617 17.5356 14.6991C17.9289 14.8476 18.2629 15.0458 18.5278 15.2875C18.8111 15.5459 19.0678 15.8669 19.2909 16.2414C19.5249 16.6338 19.7136 17.0415 19.8516 17.4526C19.9958 17.8824 20.1171 18.3562 20.2121 18.861C20.3083 19.3735 20.3734 19.855 20.4052 20.2925V20.2928C20.438 20.7378 20.4545 21.2028 20.4547 21.6754C20.4545 22.5815 20.1861 23.2657 19.6339 23.7668Z" fill="#C4C4C4"/>
<path d="M11.2624 12.5243C12.983 12.5243 14.4727 11.9072 15.6902 10.6896C16.9074 9.47227 17.5247 7.98276 17.5247 6.26195C17.5247 4.54174 16.9076 3.05203 15.69 1.83427C14.4725 0.61711 12.9828 0 11.2624 0C9.54155 0 8.05203 0.61711 6.83467 1.83447C5.61731 3.05183 5 4.54154 5 6.26195C5 7.98276 5.61731 9.47247 6.83467 10.6898C8.05243 11.907 9.54214 12.5243 11.2624 12.5243ZM7.91218 2.91178C8.84628 1.97769 9.94205 1.52363 11.2624 1.52363C12.5825 1.52363 13.6784 1.97769 14.6127 2.91178C15.5468 3.84608 16.0011 4.94204 16.0011 6.26195C16.0011 7.58226 15.5468 8.67802 14.6127 9.61232C13.6784 10.5466 12.5825 11.0007 11.2624 11.0007C9.94244 11.0007 8.84668 10.5464 7.91218 9.61232C6.97789 8.67822 6.52364 7.58226 6.52364 6.26195C6.52364 4.94204 6.97789 3.84608 7.91218 2.91178Z" fill="#C4C4C4"/>
</svg>
