<svg width="17" height="24" viewBox="0 0 17 24" fill="none" xmlns="http://www.w3.org/2000/svg">
<path d="M14.9762 9.2V6.4C14.9762 4.70261 14.2939 3.07475 13.0794 1.87452C11.8648 0.674284 10.2176 0 8.5 0C6.78241 0 5.13516 0.674284 3.92064 1.87452C2.70612 3.07475 2.02381 4.70261 2.02381 6.4V9.2H0V15.6C0 20.2318 3.81306 24 8.5 24C13.1869 24 17 20.2318 17 15.6V9.2H14.9762ZM3.64286 6.4C3.64286 5.12696 4.15459 3.90606 5.06548 3.00589C5.97637 2.10571 7.21181 1.6 8.5 1.6C9.78819 1.6 11.0236 2.10571 11.9345 3.00589C12.8454 3.90606 13.3571 5.12696 13.3571 6.4V9.2H3.64286V6.4ZM15.381 15.6C15.381 19.3495 12.2941 22.4 8.5 22.4C4.70586 22.4 1.61905 19.3495 1.61905 15.6V10.8H15.381V15.6Z" fill="#C4C4C4"/>
</svg>
