<svg width="28" height="30" viewBox="0 0 28 30" fill="none" xmlns="http://www.w3.org/2000/svg">
<path d="M2.74998 0H18.6809L27.1249 8.41128V28.125C27.1249 29.1609 26.285 30 25.25 30H2.74998C1.71495 30 0.875 29.1609 0.875 28.125V1.87498C0.875 0.839081 1.71505 0 2.74998 0Z" fill="#104378"/>
<path d="M27.0978 8.4373H20.5625C19.5275 8.4373 18.6875 7.59734 18.6875 6.56232V0.0185547L27.0978 8.4373Z" fill="#008cce"/>
<path d="M20.0918 14.2148C20.4059 14.2148 20.5596 13.9411 20.5596 13.6758C20.5596 13.401 20.3993 13.1357 20.0918 13.1357H18.303C17.9533 13.1357 17.7584 13.4254 17.7584 13.7451V18.141C17.7584 18.5329 17.9815 18.7504 18.2833 18.7504C18.5834 18.7504 18.8074 18.5329 18.8074 18.141V16.9345H19.8893C20.225 16.9345 20.3928 16.6598 20.3928 16.387C20.3928 16.1199 20.225 15.8545 19.8893 15.8545H18.8074V14.2148H20.0918ZM14.0458 13.1357H12.7371C12.3817 13.1357 12.1295 13.3795 12.1295 13.7413V18.1448C12.1295 18.5938 12.4923 18.7345 12.752 18.7345H14.1255C15.7511 18.7345 16.8245 17.6648 16.8245 16.0138C16.8236 14.2683 15.813 13.1357 14.0458 13.1357ZM14.1087 17.6489H13.3108V14.2214H14.0299C15.1184 14.2214 15.5918 14.9517 15.5918 15.9595C15.5918 16.9027 15.1267 17.6489 14.1087 17.6489ZM9.31429 13.1357H8.01774C7.65116 13.1357 7.44678 13.3776 7.44678 13.7451V18.141C7.44678 18.5329 7.68114 18.7504 7.99611 18.7504C8.31108 18.7504 8.54544 18.5329 8.54544 18.141V16.8576H9.35823C10.3613 16.8576 11.1892 16.1469 11.1892 15.0041C11.1893 13.8858 10.3905 13.1357 9.31429 13.1357ZM9.29276 15.8264H8.54554V14.168H9.29276C9.75401 14.168 10.0474 14.5279 10.0474 14.9976C10.0465 15.4664 9.75401 15.8264 9.29276 15.8264Z" fill="white"/>
</svg>
