<svg width="17" height="27" viewBox="0 0 17 27" fill="none" xmlns="http://www.w3.org/2000/svg">
<path d="M13.4209 0H2.98531C1.33924 0 0 1.33918 0 2.98531V23.5969C0 25.243 1.33918 26.5822 2.98531 26.5822H13.4209C15.067 26.5822 16.4062 25.243 16.4062 23.5969V2.98531C16.4062 1.33918 15.067 0 13.4209 0ZM2.98531 1.55755H13.4209C14.2082 1.55755 14.8487 2.19807 14.8487 2.98531V20.5078H1.55755V2.98531C1.55755 2.19807 2.19807 1.55755 2.98531 1.55755ZM13.4209 25.0247H2.98531C2.19802 25.0247 1.55755 24.3842 1.55755 23.597V22.0653H14.8487V23.5969C14.8487 24.3842 14.2082 25.0247 13.4209 25.0247Z" fill="#C4C4C4"/>
</svg>
