<svg width="23" height="23" viewBox="0 0 23 23" fill="none" xmlns="http://www.w3.org/2000/svg">
<circle cx="11.2196" cy="11.2196" r="6.17073" fill="white"/>
<path d="M11.5 0C5.14881 0 0 5.14872 0 11.5C0 17.8513 5.14881 23 11.5 23C17.8512 23 23 17.8513 23 11.5C23 5.14872 17.8512 0 11.5 0ZM15.4747 12.1096L9.72469 15.7033C9.60834 15.776 9.47604 15.8125 9.34375 15.8125C9.2239 15.8125 9.10387 15.7827 8.99525 15.7223C8.76677 15.5956 8.625 15.3552 8.625 15.0938V7.90625C8.625 7.6448 8.76677 7.40438 8.99525 7.2777C9.22372 7.1503 9.50309 7.15803 9.72469 7.29666L15.4747 10.8904C15.6847 11.022 15.8125 11.2523 15.8125 11.5C15.8125 11.7477 15.6847 11.978 15.4747 12.1096Z" fill="#104378"/>
</svg>
