<?xml version="1.0" encoding="utf-8"?>
<!-- Generator: Adobe Illustrator 24.2.1, SVG Export Plug-In . SVG Version: 6.00 Build 0)  -->
<svg version="1.1" id="Layer_1" xmlns="http://www.w3.org/2000/svg" xmlns:xlink="http://www.w3.org/1999/xlink" x="0px" y="0px"
	 viewBox="0 0 25.1 25.1" style="enable-background:new 0 0 25.1 25.1;" xml:space="preserve">
<style type="text/css">
	.st0{fill:#104378;}
</style>
<path class="st0" d="M11.3,12.5L8.9,10C8.7,9.9,8.6,9.6,8.6,9.4c0-0.2,0.1-0.4,0.3-0.6C9,8.6,9.3,8.5,9.5,8.5c0.2,0,0.5,0.1,0.6,0.2
	l2.5,2.5l2.5-2.5c0.1-0.1,0.2-0.2,0.3-0.2c0.1,0,0.2-0.1,0.3-0.1c0.1,0,0.2,0,0.3,0.1c0.1,0,0.2,0.1,0.3,0.2
	c0.1,0.1,0.1,0.2,0.2,0.3c0,0.1,0.1,0.2,0.1,0.3c0,0.1,0,0.2-0.1,0.3c0,0.1-0.1,0.2-0.2,0.3l-2.5,2.5l2.5,2.5
	c0.1,0.1,0.2,0.2,0.2,0.3c0,0.1,0.1,0.2,0.1,0.3c0,0.1,0,0.2-0.1,0.3c0,0.1-0.1,0.2-0.2,0.3c-0.1,0.1-0.2,0.1-0.3,0.2
	c-0.1,0-0.2,0.1-0.3,0.1c-0.1,0-0.2,0-0.3-0.1c-0.1,0-0.2-0.1-0.3-0.2l-2.5-2.5l-2.5,2.5c-0.2,0.2-0.4,0.2-0.6,0.2
	c-0.2,0-0.4-0.1-0.6-0.3c-0.2-0.2-0.3-0.4-0.3-0.6c0-0.2,0.1-0.5,0.2-0.6L11.3,12.5z"/>
<path class="st0" d="M12.6,23c1.4,0,2.7-0.3,4-0.8c1.3-0.5,2.4-1.3,3.4-2.3c1-1,1.7-2.1,2.3-3.4c0.5-1.3,0.8-2.6,0.8-4
	s-0.3-2.7-0.8-4C21.7,7.2,21,6.1,20,5.1c-1-1-2.1-1.7-3.4-2.3C15.3,2.3,14,2,12.6,2C9.8,2,7.1,3.1,5.2,5.1c-2,2-3.1,4.6-3.1,7.4
	s1.1,5.5,3.1,7.4C7.1,21.9,9.8,23,12.6,23z M12.6,24.8c-3.2,0-6.4-1.3-8.7-3.6c-2.3-2.3-3.6-5.4-3.6-8.7s1.3-6.4,3.6-8.7
	c2.3-2.3,5.4-3.6,8.7-3.6s6.4,1.3,8.7,3.6c2.3,2.3,3.6,5.4,3.6,8.7s-1.3,6.4-3.6,8.7C18.9,23.5,15.8,24.8,12.6,24.8z"/>
</svg>
