<svg  viewBox="0 0 26 26" fill="none" xmlns="http://www.w3.org/2000/svg">
<path d="M25.5729 23.5225L20.6633 18.6274C22.2474 16.6093 23.1069 14.1173 23.1037 11.5519C23.1037 9.26713 22.4262 7.0337 21.1568 5.13401C19.8875 3.23432 18.0834 1.7537 15.9725 0.879367C13.8617 0.00503571 11.539 -0.223729 9.29819 0.222001C7.05735 0.667731 4.99901 1.76794 3.38346 3.38349C1.76791 4.99904 0.6677 7.05738 0.22197 9.29822C-0.22376 11.5391 0.00500519 13.8617 0.879336 15.9726C1.75367 18.0834 3.23429 19.8875 5.13398 21.1569C7.03367 22.4262 9.2671 23.1037 11.5518 23.1037C14.1173 23.1069 16.6093 22.2474 18.6273 20.6634L23.5224 25.5729C23.6567 25.7082 23.8164 25.8157 23.9923 25.889C24.1683 25.9623 24.357 26 24.5476 26C24.7383 26 24.927 25.9623 25.103 25.889C25.2789 25.8157 25.4386 25.7082 25.5729 25.5729C25.7082 25.4387 25.8156 25.279 25.889 25.103C25.9623 24.927 26 24.7383 26 24.5477C26 24.3571 25.9623 24.1683 25.889 23.9924C25.8156 23.8164 25.7082 23.6567 25.5729 23.5225ZM2.88796 11.5519C2.88796 9.83832 3.39609 8.16324 4.34809 6.73848C5.30009 5.31371 6.6532 4.20324 8.23632 3.54749C9.81943 2.89174 11.5614 2.72017 13.2421 3.05447C14.9227 3.38877 16.4665 4.21392 17.6781 5.42558C18.8898 6.63725 19.7149 8.181 20.0492 9.86163C20.3835 11.5423 20.212 13.2843 19.5562 14.8674C18.9005 16.4505 17.79 17.8036 16.3652 18.7556C14.9405 19.7076 13.2654 20.2157 11.5518 20.2157C9.25403 20.2157 7.05034 19.3029 5.42555 17.6782C3.80076 16.0534 2.88796 13.8497 2.88796 11.5519Z" fill="white"/>
</svg>
