<?xml version="1.0" encoding="utf-8"?>
<!-- Generator: Adobe Illustrator 24.2.1, SVG Export Plug-In . SVG Version: 6.00 Build 0)  -->
<svg version="1.1" id="Layer_1" xmlns="http://www.w3.org/2000/svg" xmlns:xlink="http://www.w3.org/1999/xlink" x="0px" y="0px"
	 viewBox="0 0 1000 1000" style="enable-background:new 0 0 1000 1000;" xml:space="preserve">
<style type="text/css">
	.st0{fill:#104378;}
</style>
<g>
	<g transform="translate(0.000000,511.000000) scale(0.100000,-0.100000)">
		<path class="st0" d="M1434.5,4248.9v-761.1H767.2H100V2028.3V568.7h667.2h667.2v-2679.4V-4790H2894h1459.6v2679.4V568.7h2773.2
			H9900v1459.6v1459.6H7126.8H4353.6V4249v761H2894H1434.5V4248.9z M3686.4,3915.3v-427.5H2894h-792.3v427.5v427.4H2894h792.3
			L3686.4,3915.3L3686.4,3915.3z M1434.5,2028.3V1236h-333.6H767.2v792.3v792.3h333.6h333.6L1434.5,2028.3L1434.5,2028.3z
			 M3686.4,2028.3V1236H2894h-792.3v792.3v792.3H2894h792.3L3686.4,2028.3L3686.4,2028.3z M9232.8,2028.3V1236h-218.9H8795v479.6
			v479.6h-333.6h-333.6v-479.6V1236h-229.4H7669v271v271.1h-333.6h-333.6V1507v-271H6762h-239.8v479.6v479.6h-333.6H5855v-479.6
			V1236h-229.4h-229.4v271v271.1h-333.6H4729V1507v-271h-187.7h-187.7v792.3v792.3h2439.6h2439.6L9232.8,2028.3L9232.8,2028.3z
			 M3686.4-1777v-2345.7H2894h-792.3V-1777V568.7H2894h792.3L3686.4-1777L3686.4-1777z"/>
	</g>
</g>
</svg>
