<svg width="11" height="8" viewBox="0 0 11 8" fill="none" xmlns="http://www.w3.org/2000/svg">
<path d="M3.73488 7.85L0.153488 4.35C0.0511628 4.25 0 4.1 0 4C0 3.85 0.0511628 3.7 0.153488 3.6L0.92093 2.85C1.02326 2.75 1.17674 2.7 1.33023 2.7C1.48372 2.7 1.63721 2.75 1.73953 2.85L4.09302 5.2L9.26047 0.15C9.36279 0.05 9.51628 0 9.66977 0C9.82326 0 9.97674 0.05 10.0791 0.15L10.8465 0.9C10.9488 1 11 1.15 11 1.3C11 1.45 10.9488 1.6 10.8465 1.7L4.50233 7.85C4.4 7.95 4.24651 8 4.09302 8C3.9907 8 3.83721 7.95 3.73488 7.85Z" fill="white"/>
</svg>
