<svg width="24" height="25" viewBox="0 0 24 25" fill="none" xmlns="http://www.w3.org/2000/svg">
<path d="M20 7.53809C19.4167 7.7985 18.7865 7.97559 18.1094 8.06934C18.8177 7.65267 19.3021 7.04329 19.5625 6.24121C18.8854 6.63704 18.1875 6.90267 17.4688 7.03809C16.8333 6.35059 16.0365 6.00684 15.0781 6.00684C14.1719 6.00684 13.3984 6.32715 12.7578 6.96777C12.1172 7.6084 11.7969 8.38184 11.7969 9.28809C11.7969 9.59017 11.8229 9.84017 11.875 10.0381C10.5312 9.96517 9.27083 9.62663 8.09375 9.02246C6.91667 8.41829 5.91667 7.611 5.09375 6.60059C4.79167 7.12142 4.64062 7.6735 4.64062 8.25684C4.64062 9.44434 5.11458 10.3558 6.0625 10.9912C5.57292 10.9808 5.05208 10.8454 4.5 10.585V10.6162C4.5 11.3975 4.76042 12.0928 5.28125 12.7021C5.80208 13.3115 6.44271 13.6891 7.20312 13.835C6.90104 13.9183 6.63542 13.96 6.40625 13.96C6.27083 13.96 6.06771 13.9391 5.79688 13.8975C6.01562 14.5537 6.40365 15.0954 6.96094 15.5225C7.51823 15.9495 8.15104 16.1683 8.85938 16.1787C7.65104 17.1162 6.29167 17.585 4.78125 17.585C4.51042 17.585 4.25 17.5693 4 17.5381C5.54167 18.5173 7.21875 19.0068 9.03125 19.0068C10.1979 19.0068 11.2917 18.8219 12.3125 18.4521C13.3333 18.0824 14.2083 17.5876 14.9375 16.9678C15.6667 16.348 16.2943 15.6344 16.8203 14.8271C17.3464 14.0199 17.737 13.1761 17.9922 12.2959C18.2474 11.4157 18.375 10.5381 18.375 9.66309C18.375 9.47559 18.3698 9.33496 18.3594 9.24121C19.0156 8.77246 19.5625 8.20475 20 7.53809ZM24 4.50684V19.5068C24 20.7464 23.5599 21.8063 22.6797 22.6865C21.7995 23.5667 20.7396 24.0068 19.5 24.0068H4.5C3.26042 24.0068 2.20052 23.5667 1.32031 22.6865C0.440104 21.8063 0 20.7464 0 19.5068V4.50684C0 3.26725 0.440104 2.20736 1.32031 1.32715C2.20052 0.44694 3.26042 0.00683594 4.5 0.00683594H19.5C20.7396 0.00683594 21.7995 0.44694 22.6797 1.32715C23.5599 2.20736 24 3.26725 24 4.50684Z" fill="white"/>
</svg>
