<svg width="39" height="39" viewBox="0 0 39 39" fill="none" xmlns="http://www.w3.org/2000/svg">
<path d="M13.3196 11.0512L17.4834 6.88736V28.9139C17.4834 29.4489 17.696 29.962 18.0743 30.3403C18.4526 30.7186 18.9657 30.9311 19.5007 30.9311C20.0357 30.9311 20.5488 30.7186 20.9271 30.3403C21.3054 29.962 21.5179 29.4489 21.5179 28.9139V6.88736L25.6817 11.0512C25.8689 11.2394 26.0913 11.3887 26.3363 11.4908C26.5812 11.5928 26.8439 11.6456 27.1093 11.6459C27.3747 11.6463 27.6375 11.5943 27.8827 11.4929C28.128 11.3915 28.3508 11.2427 28.5384 11.0551C28.7261 10.8674 28.8749 10.6446 28.9762 10.3994C29.0776 10.1541 29.1296 9.8913 29.1293 9.62593C29.1289 9.36056 29.0762 9.09787 28.9741 8.85291C28.8721 8.60795 28.7227 8.38553 28.5345 8.1984L20.9271 0.590873C20.7398 0.403544 20.5174 0.254946 20.2727 0.153563C20.0279 0.0521809 19.7656 0 19.5007 0C19.2358 0 18.9734 0.0521809 18.7287 0.153563C18.4839 0.254946 18.2615 0.403544 18.0742 0.590873L10.4668 8.1984C10.2786 8.38553 10.1293 8.60795 10.0272 8.85291C9.92515 9.09787 9.87243 9.36056 9.87207 9.62593C9.87171 9.8913 9.92371 10.1541 10.0251 10.3994C10.1265 10.6446 10.2753 10.8674 10.4629 11.0551C10.6506 11.2427 10.8734 11.3915 11.1186 11.4929C11.3639 11.5943 11.6267 11.6463 11.8921 11.6459C12.1574 11.6456 12.4201 11.5928 12.6651 11.4908C12.91 11.3887 13.1325 11.2394 13.3196 11.0512Z" fill="#C4C4C4"/>
<path d="M36.9828 17.4839C36.4478 17.4839 35.9347 17.6964 35.5564 18.0747C35.178 18.453 34.9655 18.9661 34.9655 19.5011V34.9666H4.03448V19.5011C4.03448 18.9661 3.82195 18.453 3.44365 18.0747C3.06534 17.6964 2.55225 17.4839 2.01724 17.4839C1.48224 17.4839 0.969142 17.6964 0.590836 18.0747C0.21253 18.453 0 18.9661 0 19.5011V35.6391C0 36.5307 0.354217 37.3859 0.984727 38.0164C1.61524 38.6469 2.47039 39.0011 3.36207 39.0011H35.6379C36.5296 39.0011 37.3848 38.6469 38.0153 38.0164C38.6458 37.3859 39 36.5307 39 35.6391V19.5011C39 18.9661 38.7875 18.453 38.4092 18.0747C38.0309 17.6964 37.5178 17.4839 36.9828 17.4839Z" fill="#C4C4C4"/>
</svg>
