<svg width="42" height="42" viewBox="0 0 42 42" fill="none" xmlns="http://www.w3.org/2000/svg">
<circle r="21" transform="matrix(-1 0 0 1 21 21)" fill="white" />
<path d="M23.5044 21.0055L13.7779 11.2785C13.5101 11.0113 13.3627 10.6541 13.3627 10.2732C13.3627 9.89208 13.5101 9.53506 13.7779 9.26745L14.6302 8.41558C14.8976 8.14754 15.255 8 15.6359 8C16.0168 8 16.3739 8.14754 16.6415 8.41558L28.2225 19.9964C28.4911 20.2648 28.6383 20.6235 28.6372 21.0049C28.6383 21.3879 28.4913 21.7462 28.2225 22.0148L16.6523 33.5844C16.3846 33.8525 16.0276 34 15.6465 34C15.2656 34 14.9086 33.8525 14.6407 33.5844L13.7887 32.7326C13.2342 32.1781 13.2342 31.2755 13.7887 30.7213L23.5044 21.0055Z" fill="black"/>
</svg>
